<?xml version="1.0" encoding="UTF-8" standalone="no"?>
<svg
   xmlns:dc="http://purl.org/dc/elements/1.1/"
   xmlns:cc="http://creativecommons.org/ns#"
   xmlns:rdf="http://www.w3.org/1999/02/22-rdf-syntax-ns#"
   xmlns:svg="http://www.w3.org/2000/svg"
   xmlns="http://www.w3.org/2000/svg"
   xmlns:xlink="http://www.w3.org/1999/xlink"
   xmlns:sodipodi="http://sodipodi.sourceforge.net/DTD/sodipodi-0.dtd"
   xmlns:inkscape="http://www.inkscape.org/namespaces/inkscape"
   version="1.1"
   id="svg10"
   width="479.48865"
   height="351.79068"
   viewBox="0 0 479.48865 351.79068"
   sodipodi:docname="rainbow.svg"
   inkscape:version="1.0.1 (c497b03c, 2020-09-10)">
  <metadata
     id="metadata16">
    <rdf:RDF>
      <cc:Work
         rdf:about="">
        <dc:format>image/svg+xml</dc:format>
        <dc:type
           rdf:resource="http://purl.org/dc/dcmitype/StillImage" />
        <dc:title />
      </cc:Work>
    </rdf:RDF>
  </metadata>
  <defs
     id="defs14">
    <linearGradient
       inkscape:collect="always"
       id="linearGradient28">
      <stop
         style="stop-color:#46dcd1;stop-opacity:1"
         offset="0"
         id="stop24" />
      <stop
         style="stop-color:#e388ed;stop-opacity:1"
         offset="1"
         id="stop26" />
    </linearGradient>
    <linearGradient
       inkscape:collect="always"
       xlink:href="#linearGradient28"
       id="linearGradient30"
       x1="547.57477"
       y1="380.80075"
       x2="907.52881"
       y2="113.96226"
       gradientUnits="userSpaceOnUse"
       gradientTransform="translate(-505.88129,18.067189)" />
  </defs>
  <sodipodi:namedview
     pagecolor="#ffffff"
     bordercolor="#666666"
     borderopacity="1"
     objecttolerance="10"
     gridtolerance="10"
     guidetolerance="10"
     inkscape:pageopacity="0"
     inkscape:pageshadow="2"
     inkscape:window-width="1280"
     inkscape:window-height="652"
     id="namedview12"
     showgrid="false"
     inkscape:snap-global="false"
     inkscape:zoom="0.71953639"
     inkscape:cx="469.73463"
     inkscape:cy="167.70571"
     inkscape:window-x="0"
     inkscape:window-y="23"
     inkscape:window-maximized="0"
     inkscape:current-layer="g18"
     inkscape:document-rotation="0" />
  <g
     inkscape:groupmode="layer"
     inkscape:label="Image"
     id="g18"
     transform="translate(-18.790956,-74.593814)">
    <path
       style="fill:url(#linearGradient30);fill-opacity:1"
       d="m 59.903318,424.86324 c -18.43848,-4.95923 -33.96065,-20.41326 -39.52741,-39.35387 -2.12014,-7.21371 -2.11173,-22.9694 0.0161,-30.137 2.18541,-7.36154 6.68681,-16.06443 10.63011,-20.55193 l 3.25746,-3.70702 0.61255,-30.08627 c 0.66631,-32.72631 1.8059,-41.87131 7.93437,-63.67193 21.37067,-76.02121 81.545862,-135.30473 158.187092,-155.843074 17.05501,-4.570408 29.77145,-6.254563 51.32284,-6.79715 32.93462,-0.829177 54.43934,2.502124 83.44315,12.926203 71.66384,25.756251 126.9787,89.550951 142.48511,164.328271 l 2.40169,11.58178 5.8825,5.69481 c 3.53068,3.41803 7.05155,8.0936 8.80663,11.69481 2.7148,5.57052 2.9241,6.82316 2.9241,17.5 0,10.69648 -0.2053,11.91923 -2.9386,17.5 -3.75018,7.65715 -11.40428,15.31125 -19.06143,19.06143 l -6,2.93857 h -51.5 -51.5 l -6,-2.93857 c -7.65715,-3.75018 -15.31125,-11.40428 -19.06143,-19.06143 -2.73325,-5.58077 -2.93857,-6.80352 -2.93857,-17.5 0,-10.69648 0.20532,-11.91923 2.93857,-17.5 3.33433,-6.80806 11.13307,-15.03582 17.06143,-18 2.2,-1.1 4.15117,-2.07617 4.33593,-2.16927 0.78676,-0.39642 -8.13727,-18.01505 -12.28489,-24.25396 -16.18595,-24.34715 -43.24765,-42.20777 -72.16024,-47.6255 -11.2455,-2.10722 -29.5361,-2.10722 -40.7816,0 -34.75519,6.51254 -64.96291,29.81737 -80.17813,61.85631 -1.98436,4.17849 -3.3481,8.01765 -3.03054,8.53147 0.31756,0.51382 2.14934,1.22913 4.07062,1.58956 1.92128,0.36043 7.64257,2.7325 12.71398,5.27125 7.28142,3.64509 10.93885,6.31786 17.38972,12.70803 4.49294,4.45066 9.58451,10.61747 11.31459,13.70402 3.13624,5.59519 3.16228,5.61362 8.7449,6.1898 3.07962,0.31784 8.0945,1.79868 11.14418,3.29076 5.07179,2.48139 13.65085,9.74817 15.82874,13.40753 0.49101,0.825 4.29462,3.18757 8.45248,5.25015 13.25888,6.57733 23.91677,19.61823 28.34391,34.68135 2.04287,6.95075 2.07706,21.80273 0.068,29.5162 -4.88041,18.73714 -20.16327,34.22818 -39.40311,39.93986 -4.81082,1.42818 -14.75267,1.60492 -87,1.54663 -67.853212,-0.0548 -82.472492,-0.30895 -86.944752,-1.51182 z M 223.13909,409.49151 c 13.64376,-1.75813 25.67561,-10.49031 31.46042,-22.83257 2.37353,-5.06407 2.68006,-6.919 2.68006,-16.21807 0,-9.28003 -0.30911,-11.15938 -2.66041,-16.17515 -4.7263,-10.08208 -13.35845,-17.7379 -24.14345,-21.41272 -3.65948,-1.24691 -5.22899,-2.56741 -7.78399,-6.54903 -4.60991,-7.18393 -11.32903,-10.84134 -19.93964,-10.85372 -8.26787,-0.0119 -9.8902,-1.14945 -14.67314,-10.28867 -4.66903,-8.92156 -14.52245,-19.01558 -22.88082,-23.43952 -8.30287,-4.39456 -16.23799,-6.28119 -26.41855,-6.28119 -15.82974,0 -27.98801,4.98801 -39.000002,16 -7.83778,7.83777 -12.28608,15.88422 -14.95215,27.04665 -1.09591,4.58837 -2.7925,9.1331 -3.7702,10.0994 -1.15897,1.14544 -4.51309,2.09285 -9.63736,2.72216 -14.65154,1.79936 -26.4762,10.1464 -32.46024,22.91372 -2.37353,5.06407 -2.68005,6.919 -2.68005,16.21807 0,9.29907 0.30652,11.154 2.68005,16.21807 5.58481,11.91554 18.00239,21.17349 30.55653,22.78149 8.2805,1.06061 145.434742,1.10622 153.622942,0.0511 z m 246.64048,-90.64376 c 15.90419,-8.94429 16.31499,-31.45071 0.73713,-40.38462 -2.88042,-1.65192 -5.98463,-3.00771 -6.89824,-3.01288 -1.86068,-0.0105 -6.83889,-5.44821 -6.83889,-7.47012 0,-0.719 -1.82022,-2.82198 -4.04493,-4.67327 -2.22471,-1.8513 -6.64059,-5.93988 -9.81307,-9.08574 -13.78877,-13.67307 -31.78828,-14.80983 -45.3908,-2.86666 -3.63961,3.19562 -9.7512,13.89542 -9.7512,17.07182 0,3.08412 -4.22551,5.80452 -10.13931,6.52774 -13.21794,1.61644 -21.84192,10.8899 -21.84192,23.48685 0,5.38579 0.51165,7.39213 2.98483,11.70446 3.35378,5.84776 9.69342,10.24854 16.44003,11.41216 2.23101,0.38478 23.18137,0.62846 46.55637,0.5415 l 42.5,-0.15812 z m -405.863522,-3.83283 2.63649,-0.55517 0.47335,-20.75944 c 0.54921,-24.08584 2.34089,-34.91506 9.25106,-55.9149 23.19846,-70.49961 85.362392,-121.21327 159.842482,-130.40036 15.63847,-1.929 46.22648,-0.70557 61.19278,2.44754 61.85051,13.03069 112.28114,53.93546 138.03706,111.9632 3.43306,7.73464 4.43381,9.11207 7.91012,10.88756 2.18889,1.11796 6.7815,4.72297 10.20578,8.01114 l 6.22598,5.97849 -2.05761,-7.27089 c -1.13168,-3.99899 -4.06068,-12.26371 -6.50889,-18.36605 -28.06289,-69.94886 -92.55343,-119.38853 -167.7482,-128.598961 -13.08454,-1.60269 -40.52616,-1.33492 -53.24058,0.51951 C 142.36624,105.75803 72.855118,171.59952 55.331468,258.53271 c -2.45248,12.16653 -4.52341,36.34635 -4.54296,53.0429 l -0.009,7.63474 5.25,-1.82013 c 2.8875,-1.00107 6.43641,-2.06996 7.88648,-2.3753 z m 32.36352,-43.13324 c 2.2,-1.57295 4.141732,-2.94485 4.314962,-3.04865 0.17323,-0.10381 0.97176,-3.04702 1.77452,-6.54045 13.96802,-60.78605 61.34886,-107.05619 123.91052,-121.0058 14.26766,-3.18132 43.40254,-3.68612 59,-1.02225 48.98395,8.36589 92.96313,39.88589 115.01638,82.43255 2.14481,4.13792 3.40533,5.58516 4.48362,5.1478 0.825,-0.33462 4.28755,-0.84702 7.69456,-1.13867 l 6.19456,-0.53026 -3.97247,-7.90086 C 376.98198,143.2652 287.6703,105.79441 206.77957,131.04349 c -38.63374,12.05906 -72.97793,38.21272 -95.44673,72.68424 -13.718442,21.04675 -23.846722,49.15769 -26.876492,74.59536 l -0.52194,4.38223 4.17258,-3.98187 c 2.29492,-2.19002 5.97258,-5.26882 8.17258,-6.84177 z m 36.114142,-13.41695 c 3.98448,-0.0231 4.17036,-0.17356 5.89778,-4.77386 13.34924,-35.55032 43.58928,-64.89882 79.18101,-76.84657 25.93586,-8.70638 57.1571,-8.65904 82.88315,0.12568 18.71328,6.39006 37.46784,18.4678 51.52575,33.18205 8.86517,9.27907 14.62509,17.40221 20.93424,29.5233 l 4.54637,8.73446 5.34963,-6.07749 5.34963,-6.07749 -1.72563,-3.65697 c -7.85146,-16.63895 -30.09209,-41.4916 -47.44799,-53.02047 -24.66712,-16.38542 -50.84454,-24.33875 -80.10808,-24.33875 -22.02973,0 -43.17911,4.80202 -62.66748,14.2288 -27.46047,13.283 -53.0231,38.85831 -66.34181,66.37471 -3.51307,7.258 -8.99071,21.67821 -8.99071,23.66858 0,0.39575 1.6875,0.32766 3.75,-0.15129 2.0625,-0.47896 5.60136,-0.88157 7.86414,-0.89469 z"
       id="path22" />
  </g>
</svg>
