<?xml version="1.0" encoding="UTF-8" standalone="no"?>
<svg
   xmlns:dc="http://purl.org/dc/elements/1.1/"
   xmlns:cc="http://creativecommons.org/ns#"
   xmlns:rdf="http://www.w3.org/1999/02/22-rdf-syntax-ns#"
   xmlns:svg="http://www.w3.org/2000/svg"
   xmlns="http://www.w3.org/2000/svg"
   xmlns:sodipodi="http://sodipodi.sourceforge.net/DTD/sodipodi-0.dtd"
   xmlns:inkscape="http://www.inkscape.org/namespaces/inkscape"
   width="210mm"
   height="297mm"
   viewBox="0 0 210 297"
   version="1.1"
   id="svg8"
   inkscape:version="1.0.1 (c497b03c, 2020-09-10)"
   sodipodi:docname="whatsapp.svg">
  <defs
     id="defs2" />
  <sodipodi:namedview
     id="base"
     pagecolor="#ffffff"
     bordercolor="#666666"
     borderopacity="1.0"
     inkscape:pageopacity="0.0"
     inkscape:pageshadow="2"
     inkscape:zoom="0.35"
     inkscape:cx="400"
     inkscape:cy="560"
     inkscape:document-units="mm"
     inkscape:current-layer="layer1"
     inkscape:document-rotation="0"
     showgrid="false"
     inkscape:snap-global="false"
     inkscape:window-width="1252"
     inkscape:window-height="729"
     inkscape:window-x="0"
     inkscape:window-y="23"
     inkscape:window-maximized="0" />
  <metadata
     id="metadata5">
    <rdf:RDF>
      <cc:Work
         rdf:about="">
        <dc:format>image/svg+xml</dc:format>
        <dc:type
           rdf:resource="http://purl.org/dc/dcmitype/StillImage" />
        <dc:title></dc:title>
      </cc:Work>
    </rdf:RDF>
  </metadata>
  <g
     inkscape:label="Layer 1"
     inkscape:groupmode="layer"
     id="layer1">
    <path
       style="fill:#ffffff;stroke-width:0.309335"
       d="m 37.640725,211.81713 c 0.07607,-0.21266 2.412742,-8.70753 5.192613,-18.87747 l 5.05431,-18.49081 -2.061193,-4.24532 c -5.103121,-10.51064 -7.245296,-19.14217 -7.555736,-30.4445 -0.25598,-9.31966 0.767534,-16.65952 3.463989,-24.84112 3.951571,-11.98987 9.819956,-21.333673 18.981423,-30.222745 11.033212,-10.705168 24.289605,-17.309375 39.956859,-19.906106 4.16157,-0.689747 12.99703,-0.921934 17.82202,-0.468339 27.70125,2.604201 51.29326,20.360365 61.6782,46.42117 1.62549,4.07912 3.15128,9.61214 4.06611,14.74503 0.95398,5.35251 1.04457,17.81649 0.16825,23.14852 -5.44038,33.10233 -31.40071,58.10792 -64.40114,62.03269 -3.95325,0.47017 -12.70794,0.46865 -16.70409,-0.003 -8.329304,-0.98284 -19.192674,-4.26145 -25.147292,-7.58955 -0.758333,-0.42394 -1.544773,-0.77072 -1.747636,-0.77072 -0.202869,0 -8.850586,2.22677 -19.217154,4.94837 -10.366568,2.7216 -19.037197,4.94881 -19.268063,4.94936 -0.230871,6.2e-4 -0.357533,-0.17301 -0.28147,-0.38567 z m 82.487555,-13.71931 c 25.82849,-3.41861 46.83571,-23.60897 51.71904,-49.70794 0.81959,-4.38029 1.12987,-13.08384 0.62077,-17.41307 -1.18999,-10.11935 -4.49633,-19.20111 -9.95202,-27.33593 C 148.53814,82.79879 124.00124,72.723518 99.280976,77.67546 78.669423,81.804357 60.873484,97.390245 53.995567,117.33694 c -6.026845,17.47852 -4.062292,36.45789 5.368992,51.86928 0.989112,1.61628 1.789423,3.14749 1.778473,3.40269 -0.01092,0.2552 -1.353038,5.32384 -2.982424,11.26363 -1.629393,5.9398 -2.909156,10.853 -2.843938,10.91823 0.06524,0.0652 3.511043,-0.77468 7.657368,-1.86645 4.146324,-1.09177 9.296177,-2.43685 11.444113,-2.98908 l 3.905346,-1.00404 2.274139,1.32817 c 12.03303,7.02767 25.492494,9.69651 39.530644,7.83845 z m 6.15724,-25.62898 c -2.70908,-0.56721 -7.72065,-2.28964 -12.34798,-4.2439 -11.72522,-4.95191 -22.683474,-14.53967 -32.289104,-28.25088 -2.772257,-3.95716 -4.980131,-8.19338 -6.20708,-11.90941 -0.778647,-2.3583 -0.870152,-3.07577 -0.887665,-6.96004 -0.02124,-4.7135 0.489726,-7.03423 2.213543,-10.05339 1.264013,-2.21382 3.897542,-5.33776 5.348212,-6.34411 1.26687,-0.87884 1.51589,-0.93041 4.96327,-1.02775 5.01889,-0.14172 4.66662,-0.52796 8.96343,9.82804 1.86642,4.49838 3.3935,8.43772 3.3935,8.75407 0,0.93446 -0.86229,2.35332 -3.60187,5.92677 -1.42166,1.85438 -2.58483,3.67356 -2.58483,4.04261 0,1.56424 4.7026,8.17385 8.672444,12.1893 4.43601,4.48699 8.85573,7.50613 15.33431,10.47498 3.74059,1.71414 3.91655,1.70172 5.89443,-0.41602 0.93608,-1.00227 2.68708,-3.11283 3.8911,-4.69014 2.41984,-3.17005 2.95991,-3.47369 5.14103,-2.89033 1.86135,0.49784 15.87178,7.34132 16.36033,7.99132 0.84115,1.11907 0.13193,6.67574 -1.22222,9.57612 -1.22985,2.63414 -5.94533,6.13512 -10.14551,7.53247 -2.59159,0.86219 -7.91869,1.09226 -10.88934,0.47029 z"
       id="path58" />
  </g>
</svg>
